<?xml version="1.0"?>
<svg xmlns="http://www.w3.org/2000/svg" xmlns:xlink="http://www.w3.org/1999/xlink" version="1.1" id="Layer_1_1_" x="0px" y="0px" viewBox="0 0 64 64" style="enable-background:new 0 0 64 64;" xml:space="preserve" width="512px" height="512px" class=""><g><g>
	<g>
		<polygon style="fill:#F0BC5E;" points="31,6 31,14 25,14 25,22 39,22 39,6   " data-original="#F0BC5E" class=""/>
	</g>
	<g>
		<path style="fill:#F0BC5E;" d="M34.721,55h-5.441l-0.818-2.456l-2.315,1.158l-3.848-3.848l1.158-2.315L21,46.721v-5.441    l2.456-0.818l-1.158-2.315l3.848-3.848l2.315,1.158L29.279,33h5.441l0.818,2.456l2.315-1.158l3.848,3.848l-1.158,2.315L43,41.279    v5.441l-2.456,0.818l1.158,2.315l-3.848,3.848l-2.315-1.158L34.721,55z" data-original="#F0BC5E" class=""/>
	</g>
	<g>
		<path style="fill:#F0BC5E;" d="M63,33H49v-8h14V33z" data-original="#F0BC5E" class=""/>
	</g>
	<g>
		<path style="fill:#F0BC5E;" d="M15,33H1v-8h14V33z" data-original="#F0BC5E" class=""/>
	</g>
	<g>
		<path d="M31,27v6h2v-6h10V15h12v5.586l-2.293-2.293l-1.414,1.414L56,24.414l4.707-4.707l-1.414-1.414L57,20.586V13H43V1H27.586    L21,7.586V13H7v7.586l-2.293-2.293l-1.414,1.414L8,24.414l4.707-4.707l-1.414-1.414L9,20.586V15h12v12H31z M41,25H23V9h6V3h12V25z     M24.414,7L27,4.414V7H24.414z" data-original="#000000" class="active-path" style="fill:#333333" data-old_color="#000000"/>
		<path d="M32,39c-2.757,0-5,2.243-5,5s2.243,5,5,5s5-2.243,5-5S34.757,39,32,39z M32,47c-1.654,0-3-1.346-3-3s1.346-3,3-3    s3,1.346,3,3S33.654,47,32,47z" data-original="#000000" class="active-path" style="fill:#333333" data-old_color="#000000"/>
		<rect x="31" y="5" width="8" height="2" data-original="#000000" class="active-path" style="fill:#333333" data-old_color="#000000"/>
		<rect x="31" y="9" width="8" height="2" data-original="#000000" class="active-path" style="fill:#333333" data-old_color="#000000"/>
		<rect x="25" y="13" width="14" height="2" data-original="#000000" class="active-path" style="fill:#333333" data-old_color="#000000"/>
		<rect x="25" y="17" width="14" height="2" data-original="#000000" class="active-path" style="fill:#333333" data-old_color="#000000"/>
		<rect x="25" y="21" width="14" height="2" data-original="#000000" class="active-path" style="fill:#333333" data-old_color="#000000"/>
		<path d="M57,49.142V33h-2v10H43v2h4v12.184c-1.161,0.414-2,1.514-2,2.816c0,1.654,1.346,3,3,3s3-1.346,3-3    c0-1.302-0.839-2.402-2-2.816V45h6v4.142c-1.721,0.447-3,2-3,3.858c0,2.206,1.794,4,4,4s4-1.794,4-4    C60,51.142,58.721,49.589,57,49.142z M48,61c-0.552,0-1-0.449-1-1s0.448-1,1-1s1,0.449,1,1S48.552,61,48,61z M56,55    c-1.103,0-2-0.897-2-2s0.897-2,2-2s2,0.897,2,2S57.103,55,56,55z" data-original="#000000" class="active-path" style="fill:#333333" data-old_color="#000000"/>
		<path d="M9,33H7v16.142c-1.721,0.447-3,2-3,3.858c0,2.206,1.794,4,4,4s4-1.794,4-4c0-1.858-1.279-3.411-3-3.858V45h6v12.184    c-1.161,0.414-2,1.514-2,2.816c0,1.654,1.346,3,3,3s3-1.346,3-3c0-1.302-0.839-2.402-2-2.816V45h4v-2H9V33z M16,61    c-0.552,0-1-0.449-1-1s0.448-1,1-1s1,0.449,1,1S16.552,61,16,61z M10,53c0,1.103-0.897,2-2,2s-2-0.897-2-2s0.897-2,2-2    S10,51.897,10,53z" data-original="#000000" class="active-path" style="fill:#333333" data-old_color="#000000"/>
	</g>
</g></g> </svg>
