<?xml version="1.0" encoding="utf-8"?>
<!-- Generator: Adobe Illustrator 16.0.0, SVG Export Plug-In . SVG Version: 6.00 Build 0)  -->
<!DOCTYPE svg PUBLIC "-//W3C//DTD SVG 1.1//EN" "http://www.w3.org/Graphics/SVG/1.1/DTD/svg11.dtd">
<svg version="1.1" id="Layer_1" xmlns="http://www.w3.org/2000/svg" xmlns:xlink="http://www.w3.org/1999/xlink" x="0px" y="0px"
	 width="2021.156px" height="2021.158px" viewBox="0 0 2021.156 2021.158" enable-background="new 0 0 2021.156 2021.158"
	 xml:space="preserve">
<circle fill="none" stroke="#ececec" stroke-width="75" stroke-miterlimit="10" cx="1010.578" cy="1010.58" r="931.578"/>
<g>
	<path fill="#ececec" d="M860.993,536.432c3.875,0,7.125,1.094,9.719,3.266s3.891,5.422,3.891,9.766v22.172
		c0,11.297-3.031,20.422-9.078,27.375c-6.063,6.953-14.047,10.422-23.969,10.422h-40.188v810.688c0,6.484-2.281,11.984-6.828,16.516
		s-10.063,6.797-16.547,6.797h-40.25c-6.5,0-12.016-2.266-16.563-6.797s-6.813-10.031-6.813-16.516V609.432h-40.172
		c-9.938,0-17.938-3.469-23.984-10.422s-9.063-16.078-9.063-27.375v-22.172c0-4.344,1.281-7.594,3.875-9.766
		s5.828-3.266,9.734-3.266H860.993z"/>
	<path fill="#ececec" d="M1366.709,536.432c3.891,0,7.141,1.094,9.734,3.266s3.906,5.422,3.906,9.766v22.172
		c0,11.297-3.031,20.422-9.094,27.375s-14.078,10.422-24.031,10.422h-79.875v348h86.188c3.875,0,7.125,1.094,9.719,3.266
		s3.891,5.422,3.891,9.766v22.172c0,11.297-3.031,20.422-9.078,27.375s-14.031,10.422-23.969,10.422h-66.75v340h79.875
		c9.953,0,17.969,3.484,24.031,10.438s9.094,16.078,9.094,27.359v22.172c0,4.344-1.313,7.609-3.906,9.781s-5.844,3.25-9.734,3.25
		h-173.375c-4.328,0-7.578-1.297-9.734-3.891c-2.172-2.594-3.25-5.828-3.25-9.719V550.042c0-3.875,1.078-7.125,3.25-9.719
		c2.156-2.594,5.406-3.891,9.734-3.891H1366.709z"/>
</g>
<g>
	<line fill="none" stroke="#000000" stroke-width="0.3" x1="54" y1="0" x2="54" y2="36"/>
	<line fill="none" stroke="#000000" stroke-width="0.3" x1="0" y1="54" x2="36" y2="54"/>
	<line fill="none" stroke="#000000" stroke-width="0.3" x1="0" y1="1967.158" x2="36" y2="1967.158"/>
	<line fill="none" stroke="#000000" stroke-width="0.3" x1="54" y1="2021.158" x2="54" y2="1985.158"/>
	<line fill="none" stroke="#000000" stroke-width="0.3" x1="1967.156" y1="0" x2="1967.156" y2="36"/>
	<line fill="none" stroke="#000000" stroke-width="0.3" x1="2021.156" y1="54" x2="1985.156" y2="54"/>
	<line fill="none" stroke="#000000" stroke-width="0.3" x1="2021.156" y1="1967.158" x2="1985.156" y2="1967.158"/>
	<line fill="none" stroke="#000000" stroke-width="0.3" x1="1967.156" y1="2021.158" x2="1967.156" y2="1985.158"/>
</g>
<g>
</g>
<g>
</g>
<g>
</g>
<g>
</g>
<g>
</g>
<g>
</g>
</svg>
